<svg width="64" height="64" viewBox="0 0 64 64" fill="none" xmlns="http://www.w3.org/2000/svg">
<path d="M20 48C21.0609 48 22.0783 48.4214 22.8284 49.1716C23.5786 49.9217 24 50.9391 24 52C24 53.0609 23.5786 54.0783 22.8284 54.8284C22.0783 55.5786 21.0609 56 20 56C18.9391 56 17.9217 55.5786 17.1716 54.8284C16.4214 54.0783 16 53.0609 16 52C16 50.9391 16.4214 49.9217 17.1716 49.1716C17.9217 48.4214 18.9391 48 20 48ZM44 48C45.0609 48 46.0783 48.4214 46.8284 49.1716C47.5786 49.9217 48 50.9391 48 52C48 53.0609 47.5786 54.0783 46.8284 54.8284C46.0783 55.5786 45.0609 56 44 56C42.9391 56 41.9217 55.5786 41.1716 54.8284C40.4214 54.0783 40 53.0609 40 52C40 50.9391 40.4214 49.9217 41.1716 49.1716C41.9217 48.4214 42.9391 48 44 48Z" fill="#5D5151" stroke="#5D5151"/>
<path d="M42.9736 39.6666V42.9996H29.501V39.6666H42.9736ZM17.1484 37.981C17.926 38.6869 18.9838 39.1297 20.7451 39.3785C22.6904 39.6541 25.2425 39.6651 28.835 39.6656V42.9986C25.3239 42.9986 22.4976 42.9949 20.2764 42.6783H20.2754C18.0465 42.3648 16.2008 41.7093 14.7256 40.2789L17.1484 37.981ZM51.8115 41.6285C50.8048 42.3552 49.6596 42.6821 48.3809 42.8375C47.1039 42.9934 45.5304 42.9984 43.6396 42.9986V39.6656C45.5835 39.6651 46.933 39.6572 47.9746 39.5279L47.9736 39.5269C48.8086 39.4266 49.3204 39.2594 49.6963 39.0328L51.8115 41.6285ZM52.8076 32.9644L55.3223 33.482C54.9905 35.0885 54.704 36.4586 54.3652 37.5885L54.207 38.0885C53.7958 39.3126 53.2465 40.3668 52.3291 41.2076L50.2129 38.6119C50.5108 38.2895 50.7814 37.8216 51.0498 37.023L51.0488 37.0221C51.3844 36.0276 51.6649 34.7108 52.0586 32.8102L52.8076 32.9644ZM14.8887 26.36C14.8916 30.1279 14.9459 32.4912 15.2363 34.2076L15.2373 34.2086C15.495 35.7113 15.9252 36.6269 16.6865 37.5016L14.2646 39.7965C13.0887 38.4779 12.4056 37.068 12.0264 35.1793L11.9502 34.7701C11.6036 32.7307 11.558 30.0675 11.5557 26.36H14.8887ZM55.0195 26.6812H55.0205L56.6514 27.0162L55.4551 32.8277L53.7129 32.4693L52.1885 32.1549L53.3838 26.3531L55.0195 26.6812ZM56.8086 17.1139C57.5869 18.2832 57.7359 19.6286 57.6465 21.0455V21.0465C57.5593 22.4661 57.2117 24.2302 56.7861 26.3541L55.2451 26.0455L53.5215 25.69C53.9569 23.5074 54.2492 21.9951 54.3193 20.8414C54.3721 19.9731 54.2863 19.4836 54.1436 19.1627L56.8086 17.1139ZM14.8877 19.1012V25.693H11.5547V19.1012H14.8877ZM45.9062 14.6529C48.0109 14.6532 50.12 14.6614 51.8594 14.8541H51.8643C52.7469 14.938 53.6177 15.1203 54.46 15.3971H54.4609C55.1394 15.6337 55.8492 15.9976 56.3994 16.5885L53.6807 18.6783C53.5974 18.6371 53.4917 18.5895 53.3564 18.5416C52.9107 18.3834 52.2841 18.261 51.4922 18.1676H51.4902C49.9601 17.9978 48.0479 17.9875 45.9062 17.9869V14.6529ZM13.7861 10.8687C14.3534 11.8083 14.6125 12.8382 14.7461 13.9869H12.8906V14.3199L12.8877 18.3199V18.4342H11.5547C11.5541 16.6485 11.5457 15.4011 11.4404 14.4254C11.3563 13.6429 11.2159 13.1393 11.0234 12.7584L13.7861 10.8687ZM45.2344 14.6529V17.9869H15.5537C15.5523 16.7359 15.5416 15.6234 15.4746 14.6529H45.2344ZM14.8076 14.6529C14.8757 15.6068 14.8852 16.713 14.8867 17.9869H13.5547L13.5576 14.6529H14.8076ZM6.89648 6.78183C8.45538 7.3304 9.76204 7.79717 10.792 8.30234V8.30136C11.8361 8.81517 12.7213 9.42388 13.4102 10.318L10.6445 12.2066C10.4145 11.9526 10.1008 11.7109 9.62012 11.4518L9.3252 11.3004C8.49481 10.8892 7.39098 10.4914 5.79004 9.92734L6.89648 6.78183ZM6.26758 6.56015L5.16113 9.70566L5.09375 9.68222L6.2002 6.53671L6.26758 6.56015ZM5.56055 6.34726L4.47559 9.42929C4.19772 9.26252 3.97135 9.01786 3.8291 8.72128C3.6379 8.32253 3.61312 7.86407 3.75977 7.44687C3.90654 7.02954 4.21342 6.68701 4.6123 6.4957C4.90918 6.35339 5.23919 6.3031 5.56055 6.34726Z" fill="#17181C" stroke="#17181C" stroke-width="0.666667"/>
</svg>
